<?xml version="1.0" encoding="utf-8"?>
<!-- Generator: Adobe Illustrator 24.2.3, SVG Export Plug-In . SVG Version: 6.00 Build 0)  -->
<svg version="1.1" id="Layer_1" xmlns="http://www.w3.org/2000/svg" xmlns:xlink="http://www.w3.org/1999/xlink" x="0px" y="0px"
	 viewBox="0 0 936 294.3" style="enable-background:new 0 0 936 294.3;" xml:space="preserve">
<style type="text/css">
	.st0{fill:#D1D1CF;}
	.st1{fill:#7AB0D4;}
</style>
<g>
	<polygon class="st0" points="252.5,149.4 236.4,165.6 155,165.6 155,247 138.9,263.1 122.8,247 122.7,165.6 41.3,165.6 25.2,149.5 
		41.3,133.4 122.8,133.4 122.8,51.9 138.9,35.8 155,51.9 155,133.4 236.5,133.4 252.5,149.4 	"/>
	<polygon class="st0" points="190.2,200.6 169.7,200.7 138.9,169.9 108.6,200.2 88.1,200.2 88.1,179.7 118.4,149.3 86.9,117.9 
		86.9,97.4 107.4,97.4 138.9,128.9 170.4,97.4 190.9,97.4 190.9,117.9 159.4,149.3 190.2,180.2 190.2,200.6 	"/>
	<polygon class="st1" points="120.1,44.7 112.3,36.8 138.9,10.2 165.6,36.8 157.7,44.7 138.9,25.9 120.1,44.7 	"/>
	<polygon class="st1" points="26.6,175.6 0,149 26.6,122.4 34.5,130.2 15.7,149 34.5,167.8 26.6,175.6 	"/>
	<polygon class="st1" points="138.8,287.9 112.2,261.3 120,253.5 138.8,272.3 157.6,253.5 165.4,261.3 138.8,287.9 	"/>
	<polygon class="st1" points="251.1,175.8 243.3,167.9 262.1,149.1 243.3,130.3 251.1,122.5 277.7,149.1 251.1,175.8 	"/>
	<polygon class="st1" points="228.6,94.8 193.6,94.8 193.6,59.8 204.7,59.8 204.7,83.8 228.6,83.8 228.6,94.8 	"/>
	<polygon class="st0" points="233.2,77.9 210.5,77.9 210.5,55.2 217.7,55.2 217.7,70.7 233.2,70.7 233.2,77.9 	"/>
	<polygon class="st1" points="84.3,94.8 49.3,94.8 49.3,83.8 73.2,83.8 73.2,59.8 84.3,59.8 84.3,94.8 	"/>
	<polygon class="st0" points="67.3,77.9 44.6,77.9 44.6,70.7 60.2,70.7 60.2,55.2 67.3,55.2 67.3,77.9 	"/>
	<polygon class="st1" points="204.7,238.5 193.6,238.5 193.6,203.4 228.6,203.4 228.6,214.5 204.7,214.5 204.7,238.5 	"/>
	<polygon class="st0" points="217.7,243.1 210.5,243.1 210.5,220.4 233.2,220.4 233.2,227.6 217.7,227.6 217.7,243.1 	"/>
	<polygon class="st1" points="84.3,238.5 73.2,238.5 73.2,214.5 49.3,214.5 49.3,203.4 84.3,203.4 84.3,238.5 	"/>
	<polygon class="st0" points="67.3,243.1 60.2,243.1 60.2,227.6 44.6,227.6 44.6,220.4 67.3,220.4 67.3,243.1 	"/>
	<path class="st1" d="M487.5,89c16.5,0,32.2,6.4,44.6,17c1.5,1.5,1.6,3.7,0.2,5.1L521,123c-1.5,1.5-3.1,1.5-4.8,0
		c-7.9-6.9-17.5-10.6-27.6-10.6c-22.9,0-41,19.6-41,42.4c0,22.7,18.1,41.9,41.1,41.9c10.2,0,18.1-3.1,21.8-4.6v-15.5h-14.6
		c-2,0-3.5-1.5-3.5-3.3v-14.4c0-2,1.5-3.5,3.5-3.5H531c1.8,0,3.3,1.6,3.3,3.5v46.8c0,1.5-0.7,2.4-1.5,2.9c0,0-18.8,11.9-45.3,11.9
		c-36.4,0-65.6-28.9-65.6-65.5C421.9,118.4,451.1,89,487.5,89L487.5,89z"/>
	<path class="st1" d="M584.4,94.3c0-1.8,1.5-3.5,3.5-3.5h16.8c1.8,0,3.5,1.6,3.5,3.5v102.6h46.6c2,0,3.5,1.6,3.5,3.5v15
		c0,1.8-1.5,3.5-3.5,3.5h-66.9c-2,0-3.5-1.6-3.5-3.5V94.3L584.4,94.3z"/>
	<path class="st1" d="M698.1,94.3c0-1.8,1.6-3.5,3.5-3.5H719c2,0,3.5,1.6,3.5,3.5v74.8c0,15.5,10.6,27.8,26.5,27.8
		c15.9,0,26.7-12.3,26.7-27.6v-75c0-1.8,1.5-3.5,3.5-3.5h17.4c1.8,0,3.5,1.6,3.5,3.5v76.1c0,27.8-22.1,50.3-51,50.3
		c-28.7,0-50.8-22.5-50.8-50.3V94.3L698.1,94.3z"/>
	<path class="st1" d="M854.6,94.3c0-1.8,1.5-3.5,3.5-3.5h74.4c2,0,3.5,1.6,3.5,3.5v15c0,1.8-1.5,3.5-3.5,3.5h-54.1v30h45.2
		c1.8,0,3.5,1.6,3.5,3.5v15.2c0,2-1.6,3.5-3.5,3.5h-45.2v32h54.1c2,0,3.5,1.6,3.5,3.5v15c0,1.8-1.5,3.5-3.5,3.5h-74.4
		c-2,0-3.5-1.6-3.5-3.5V94.3L854.6,94.3z"/>
	<polygon class="st0" points="354.1,294.3 351.3,294.3 351.3,0 354.1,0 354.1,294.3 	"/>
</g>
</svg>
